<?xml version="1.0" encoding="UTF-8" standalone="no"?>
<!-- Created with Inkscape (http://www.inkscape.org/) -->
<svg xmlns="http://www.w3.org/2000/svg" id="svg2461" viewBox="0 0 195.95 642.93" version="1.0">
  <g id="layer2" transform="translate(-37.027 -2.5359)">
    <g id="g3260" transform="translate(387.5 -8.9641)">
      <g id="g3250">
        <path id="path2470" style="stroke:#000000;stroke-linecap:square;stroke-width:1px;fill:none" d="m-252 12c10.36 0.545 35.2-2.966 22.67 64-12.44 66.45 61.42 18.443 73.06 66.26 3.83 15.74-2.4 41.74-2.4 41.74s4.82 21.99 2.67 41.33c-0.79 7.11-11.51 35.66-10.81 42.97 0.51 5.43 5.22 25.25 5.08 39.26-0.11 11.7-3.97 35.13-4.35 44.02-0.23 5.22 5.19 37.63 4.5 43.63-0.5 4.36-14.19 27.76-16.54 25.88-1.98-1.58 7.06-25.93 7.45-29.09 0.49-3.92-4.74-17.43-6.66-17.33-3.21 0.13 0.24 24.96-2.67 24.96-2.54 0-9.21-15.4-9.21-22.3 0-5.81 5.46-20.4 5.21-29.33-0.44-15.61-9.71-35.05-10.18-50.67-0.29-9.33 1.75-21.72 1.33-31.03-0.59-13.19-5.82-43.63-5.82-43.63s-7.62 31.52-8 45.33c-0.72 26.58 10.95 61.41 10.67 88-0.48 45.25 14.82 49.74-4.98 149.33 5.78 12.73 5.9 35.38 3.4 48.73-3.88 20.67-14.56 47.61-16.74 63.27 5.09 14.53 27.39 36.73 15.04 36 0 0-32.06 1.34-36.37 0-3.56-1.1 2.32-13.6 1.5-35.59-0.62-16.57-6.58-39.67-6.67-61.97-0.05-13.56-1.31-21.72 4.96-50-16.39-72.05-16.14-123.41-16.14-123.41" />
        <path id="path2474" style="stroke:#000000;stroke-width:1px;fill:none" d="m-199.48 225.32c1.51 0 8.39-55.59 0-55.59" />
        <path id="path3258" style="stroke:#000000;stroke-linecap:square;stroke-width:1px;fill:none" d="m-252.03 107.39c9.04-0.17 19.16-15.08 22.05-27.586" />
      </g>
      <use id="use3256" xlink:href="#g3250" transform="matrix(-1,0,0,1,-505,0)" height="648" width="270" y="0" x="0" />
    </g>
  </g>

</svg>
